inDegrees=no
num_controls=7
num_derivatives=13
num_iterations=152
num_multipliers=7
num_parameters=0
num_slacks=7
num_states=26
objective=0.477365
objective_accelerations=0.043805
objective_balance=0.003615
objective_effort=0.040053
objective_height=0.384221
objective_ligament=0.005672
solver_duration=2043.583327
status=Solve_Succeeded
success=true
DataType=double
version=3
OpenSimVersion=4.5
endheader
time	/jointset/ground_pelvis/pelvis_tilt/value	/jointset/ground_pelvis/pelvis_tx/value	/jointset/ground_pelvis/pelvis_ty/value	/jointset/hip_l/hip_flexion_l/value	/jointset/hip_l/hip_adduction_l/value	/jointset/hip_l/hip_rotation_l/value	/jointset/back/lumbar_extension/value	/jointset/patellofemoral_l/patellar_flexion_l/value	/jointset/knee_l/knee_flexion_l/value	/jointset/knee_l/knee_adduction_l/value	/jointset/knee_l/knee_rotation_l/value	/jointset/ankle_l/ankle_angle_l/value	/jointset/subtalar_l/subtalar_angle_l/value	/jointset/ground_pelvis/pelvis_tilt/speed	/jointset/ground_pelvis/pelvis_tx/speed	/jointset/ground_pelvis/pelvis_ty/speed	/jointset/hip_l/hip_flexion_l/speed	/jointset/hip_l/hip_adduction_l/speed	/jointset/hip_l/hip_rotation_l/speed	/jointset/back/lumbar_extension/speed	/jointset/patellofemoral_l/patellar_flexion_l/speed	/jointset/knee_l/knee_flexion_l/speed	/jointset/knee_l/knee_adduction_l/speed	/jointset/knee_l/knee_rotation_l/speed	/jointset/ankle_l/ankle_angle_l/speed	/jointset/subtalar_l/subtalar_angle_l/speed	/forceset/tau_hip_flexion_l	/forceset/tau_hip_adduction_l	/forceset/tau_hip_rotation_l	/forceset/tau_knee_flexion_l	/forceset/tau_ankle_angle_l	/forceset/tau_subtalar_angle_l	/forceset/tau_lumbar_extension	lambda_cid13_p0	lambda_cid13_p1	lambda_cid13_p2	lambda_cid13_p3	lambda_cid13_p4	lambda_cid13_p5	lambda_cid14_p0	/jointset/ground_pelvis/pelvis_tilt/accel	/jointset/ground_pelvis/pelvis_tx/accel	/jointset/ground_pelvis/pelvis_ty/accel	/jointset/hip_l/hip_flexion_l/accel	/jointset/hip_l/hip_adduction_l/accel	/jointset/hip_l/hip_rotation_l/accel	/jointset/back/lumbar_extension/accel	/jointset/patellofemoral_l/patellar_flexion_l/accel	/jointset/knee_l/knee_flexion_l/accel	/jointset/knee_l/knee_adduction_l/accel	/jointset/knee_l/knee_rotation_l/accel	/jointset/ankle_l/ankle_angle_l/accel	/jointset/subtalar_l/subtalar_angle_l/accel	gamma_cid13_p0	gamma_cid13_p1	gamma_cid13_p2	gamma_cid13_p3	gamma_cid13_p4	gamma_cid13_p5	gamma_cid14_p0
0	-0.03681741987162689	0.05667510714837497	0.9203416795623598	0.3085816938045678	-0.2956385299414658	-0.301566728588863	-0.3879492264334186	0.2499269421184921	0.2499269421184919	-0.1745329251994329	-0.1744929201802934	-0.0008036623358878681	0.0004390978384971024	0	0	0	0	0	0	0	0	0	0	0	0	0	0.07022971432552715	-0.05092262325271817	-0.01954757630064509	-0.2409193048069518	0.1854480144956792	-0.009790280434467134	0.00406399944540352	16.29759685176321	-1.168357068697373	2.663731971938903	10.25470443979364	-622.3323861284192	-77.35578572211161	-23.19556784599388	-0.9559080972276605	-2.024340520856239	-0.9164925845008395	9.210699622676605	-0.8331569701933398	3.308803253763243	-7.260954940405608	9.373483600221078	9.373483600220958	1.284451794282417	-0.08420074952469783	1.645316338944721	-0.3350113878121311	2.446438862377677e-09	1.498345052451594e-07	6.006493670178005e-08	-1.305047580049998e-08	1.270725513572209e-07	6.016222660514264e-09	3.668391708760105e-09
0.01	-0.03686155702580698	0.05657577456719196	0.9202969068814014	0.3090301798907211	-0.2956803121472973	-0.3014005330117955	-0.3883105405627197	0.2503862711466976	0.2503862711466977	-0.1744723117903082	-0.1744935730004684	-0.0007229037380815289	0.0004216875972845926	-0.008788343078319171	-0.01969634969996394	-0.008915396234081717	0.08918876673960499	-0.00831191221426728	0.03308848601506743	-0.07173833046379123	0.09144070797277332	0.09144070797277272	0.0120628396676489	-0.0001181588762805553	0.01617912561532539	-0.003425167650205899	0.06596791133425843	-0.05868996161635866	-0.01919818280708541	-0.2395163981816515	0.1833108382503231	-0.0005091726443991844	0.008763388798745364	15.85108370534429	-5.038321109770711	3.186315579157843	8.519261065720611	-625.2717736165172	-85.12138915934938	-23.20087878753469	-0.834442811208072	-1.916759824184804	-0.8731667347134925	8.696691466832805	-0.8235623749463482	3.28627540493905	-7.051597789885342	8.965599011872042	8.965599011871959	1.158155498886036	0.02624255153423633	1.60832566361787	-0.3377682781312608	-3.075242077960085e-08	1.431230704340851e-07	1.404978510522006e-07	1.851036987171563e-08	-5.707529842400682e-10	-4.861131201532679e-08	-6.171101238504125e-09
0.02	-0.03699240669038529	0.05628458296308562	0.920164159519732	0.3103552988977158	-0.2958038842808519	-0.3009079717486648	-0.3893735031347628	0.2517472541778447	0.2517472541778435	-0.1742928755625141	-0.1744950342077623	-0.0004795308859636428	0.0003717259146687346	-0.01734250207959779	-0.03837180458466474	-0.01759493614222903	0.1753265841684246	-0.01635798554465115	0.06527313721255724	-0.1403296885483599	0.1803308005882099	0.1803308005882066	0.02376389717049383	-0.0001616774240023432	0.03252285086230748	-0.006510288280669623	0.06170610834298452	-0.06645729998000081	-0.01884878931353157	-0.2381134915563539	0.1811736620049655	0.008771935145666612	0.01346277815208486	15.47681396482039	-8.919687046810017	3.70929197773841	6.670211928912633	-627.1314924112379	-92.79704333469785	-23.21647189440533	-0.9090712818195423	-1.820161557803615	-0.8693213193139578	8.600509760519527	-0.7799891934166575	3.128036290247719	-6.631560464561085	8.863360528753724	8.863360528753182	1.212095361321622	-0.06927268381294531	1.678236265276053	-0.2670019838636987	-6.395128042157939e-08	1.364116356230109e-07	2.209307654026211e-07	5.007121554393124e-08	-1.28214057325701e-07	-1.032388466911679e-07	-1.601059418576835e-08
0.03	-0.03720761554144873	0.05581119088741612	0.9199455265236042	0.3125274161665326	-0.2960063845454767	-0.3000988155137024	-0.3911068005148083	0.2539845550108119	0.2539845550108129	-0.1739980215846157	-0.1744972004948309	-7.264626391053367e-05	0.0002925629656314324	-0.02563672143242151	-0.0561914090681843	-0.02611523968694638	0.2586458795518181	-0.02408256814790141	0.09639561538313446	-0.2058460225786294	0.2667091731574254	0.2667091731574402	0.03515049119046487	-0.0002636238473173365	0.04880682288146148	-0.009276604349419815	0.05464577686201343	-0.06068765244130474	-0.01794712862263364	-0.2318616228271602	0.1750365800301125	0.007843106260319968	0.01963972216893713	13.41664640945442	-8.231999037931953	3.686948864031409	7.084141414496263	-628.6855055543979	-90.46798034765956	-23.24166681898744	-0.7802219279406081	-1.745569529724143	-0.8409475211344858	8.129981022605037	-0.7598174108853974	3.079951891744926	-6.439105139930922	8.462049935713917	8.462049935716999	1.09352539463125	0.02057181502297176	1.596390051317742	-0.2746386513383593	-8.504534731713789e-08	1.249655341921412e-07	2.76712170231348e-07	7.00999064306777e-08	-2.163032987776196e-07	-1.401780296381492e-07	-2.307281952573221e-08
0.04	-0.03750389151922612	0.05516306083969178	0.9196421779622124	0.3155191947082544	-0.2962843555595551	-0.2989833148347777	-0.3934807482886907	0.2570730344324128	0.2570730344324168	-0.1735909848720585	-0.17450014075881	0.0004956605545506404	0.0001870984093150897	-0.03355592742231689	-0.07331939899562832	-0.03453804919501816	0.3392588387494424	-0.03145213543539938	0.1265420260049998	-0.2684597673157392	0.3505665183149789	0.3505665183150155	0.04620044410229206	-0.0003164728060823647	0.06480729014392206	-0.01177060973647725	0.0475854453810432	-0.05491800490260813	-0.01704546793173443	-0.225609754097966	0.1688994980552599	0.00691427737497401	0.02581666618578955	11.42339240525147	-7.553305795072823	3.662931447821678	7.383774641161336	-629.2506159263963	-88.05284708198717	-23.27560992979879	-0.8340686092338667	-1.681838646588516	-0.8498225119848446	8.059242523365677	-0.7089861302661992	2.932822780505355	-6.051042605929143	8.359155046421325	8.359155046421495	1.144767139692851	-0.05945319090295301	1.621535313937359	-0.2125398475251497	-1.058898308571001e-07	1.134218107691108e-07	3.319852965132359e-07	8.989082093009491e-08	-3.03576992541094e-07	-1.767525043020613e-07	-3.007778161606102e-08
0.05	-0.03787786869678709	0.05434726755819504	0.9192548885413671	0.3193040412558771	-0.2966342077195914	-0.2975715570581697	-0.3964663153675984	0.2609878168616768	0.2609878168616749	-0.1730751593079072	-0.1745037245870876	0.001222786303504539	5.817176348813701e-05	-0.04118569044618466	-0.08970723363167393	-0.04291773384401124	0.4172544857068277	-0.0384596738214545	0.1556451492507524	-0.3282020652063386	0.4319731040211329	0.4319731040210891	0.0568858211155857	-0.0003919255843505721	0.08058544054501758	-0.01396552265043747	0.04150040298622963	-0.05337297449593009	-0.01634813612455697	-0.2219364469510104	0.165084374037345	0.008766265978194144	0.03133219812399433	10.27888305736304	-8.173395907822743	3.78025708873489	6.94176029749754	-629.9048606207576	-88.4911492499777	-23.31721793623413	-0.7193624358195758	-1.597434183231273	-0.8317876924922645	7.601316081208653	-0.6879023790690857	2.87435389525276	-5.868085891695674	7.96888687737705	7.968886877364863	1.018647101748621	0.01971827579965583	1.551089650262966	-0.2156431215474737	-1.218609830623899e-07	7.052359824828045e-08	3.769246498313511e-07	1.018295304952833e-07	-3.723736748569565e-07	-2.135126453958176e-07	-3.905877463137211e-08
